<mxfile host="app.diagrams.net" agent="Mozilla/5.0 (Windows NT 10.0; Win64; x64) AppleWebKit/537.36 (KHTML, like Gecko) Chrome/132.0.0.0 Safari/537.36" version="26.0.2">
  <diagram id="tSemgPMJ0oGOGgpObdcN" name="Page-2">
    <mxGraphModel dx="1518" dy="727" grid="1" gridSize="10" guides="1" tooltips="1" connect="1" arrows="1" fold="1" page="1" pageScale="1" pageWidth="827" pageHeight="1169" math="0" shadow="0">
      <root>
        <mxCell id="0" />
        <mxCell id="1" parent="0" />
        <mxCell id="0o9sH9TcsX90PuydhOdq-1" value="&lt;font style=&quot;font-size: 12px;&quot; face=&quot;Helvetica&quot;&gt;Send Movement Commands&lt;/font&gt;" style="rounded=1;whiteSpace=wrap;html=1;shadow=0;labelBackgroundColor=none;strokeWidth=1;fontFamily=Verdana;fontSize=8;align=center;fillColor=#FF6666;" vertex="1" parent="1">
          <mxGeometry x="200" y="521.25" width="100" height="60" as="geometry" />
        </mxCell>
        <mxCell id="0o9sH9TcsX90PuydhOdq-2" style="edgeStyle=orthogonalEdgeStyle;rounded=1;html=1;labelBackgroundColor=none;startArrow=none;startFill=0;startSize=5;endArrow=classicThin;endFill=1;endSize=5;jettySize=auto;orthogonalLoop=1;strokeWidth=1;fontFamily=Verdana;fontSize=8;entryX=0;entryY=0.5;entryDx=0;entryDy=0;" edge="1" parent="1" source="0o9sH9TcsX90PuydhOdq-1" target="IqPDjpfVyPJ-DAIQrwiP-1">
          <mxGeometry relative="1" as="geometry">
            <mxPoint x="210" y="290" as="targetPoint" />
          </mxGeometry>
        </mxCell>
        <mxCell id="9Qmi4rZgt9bBU9w8TVzD-2" value="" style="edgeStyle=orthogonalEdgeStyle;rounded=0;orthogonalLoop=1;jettySize=auto;html=1;entryX=0.5;entryY=0;entryDx=0;entryDy=0;" edge="1" parent="1" source="IqPDjpfVyPJ-DAIQrwiP-1" target="9Qmi4rZgt9bBU9w8TVzD-12">
          <mxGeometry relative="1" as="geometry">
            <mxPoint x="374" y="386.25" as="targetPoint" />
            <Array as="points">
              <mxPoint x="416" y="640" />
              <mxPoint x="340" y="640" />
              <mxPoint x="340" y="900" />
              <mxPoint x="500" y="900" />
            </Array>
          </mxGeometry>
        </mxCell>
        <mxCell id="9Qmi4rZgt9bBU9w8TVzD-9" value="" style="edgeStyle=orthogonalEdgeStyle;rounded=0;orthogonalLoop=1;jettySize=auto;html=1;" edge="1" parent="1" source="IqPDjpfVyPJ-DAIQrwiP-1" target="9Qmi4rZgt9bBU9w8TVzD-8">
          <mxGeometry relative="1" as="geometry" />
        </mxCell>
        <mxCell id="IqPDjpfVyPJ-DAIQrwiP-1" value="&lt;font style=&quot;font-size: 12px;&quot; face=&quot;Helvetica&quot;&gt;&lt;b&gt;Is Environment Blocked?&lt;/b&gt;&lt;/font&gt;" style="rhombus;whiteSpace=wrap;html=1;rounded=0;shadow=0;labelBackgroundColor=none;strokeWidth=1;fontFamily=Verdana;fontSize=8;align=center;fillColor=#999999;" vertex="1" parent="1">
          <mxGeometry x="356" y="500" width="120" height="102.5" as="geometry" />
        </mxCell>
        <mxCell id="9Qmi4rZgt9bBU9w8TVzD-6" value="" style="edgeStyle=orthogonalEdgeStyle;rounded=0;orthogonalLoop=1;jettySize=auto;html=1;" edge="1" parent="1" source="9Qmi4rZgt9bBU9w8TVzD-5" target="IqPDjpfVyPJ-DAIQrwiP-1">
          <mxGeometry relative="1" as="geometry" />
        </mxCell>
        <mxCell id="9Qmi4rZgt9bBU9w8TVzD-5" value="&lt;font style=&quot;font-size: 12px;&quot; face=&quot;Helvetica&quot;&gt;Detect Environmental Obstacles&lt;/font&gt;" style="rounded=1;whiteSpace=wrap;html=1;shadow=0;labelBackgroundColor=none;strokeWidth=1;fontFamily=Verdana;fontSize=8;align=center;fillColor=#FFFF99;" vertex="1" parent="1">
          <mxGeometry x="366" y="400" width="100" height="60" as="geometry" />
        </mxCell>
        <mxCell id="9Qmi4rZgt9bBU9w8TVzD-8" value="&lt;font face=&quot;Helvetica&quot;&gt;&lt;span style=&quot;font-size: 12px;&quot;&gt;&lt;b&gt;Is Command Conflicting?&lt;/b&gt;&lt;/span&gt;&lt;/font&gt;" style="rhombus;whiteSpace=wrap;html=1;rounded=0;shadow=0;labelBackgroundColor=none;strokeWidth=1;fontFamily=Verdana;fontSize=8;align=center;fillColor=#999999;" vertex="1" parent="1">
          <mxGeometry x="506" y="500" width="120" height="102.5" as="geometry" />
        </mxCell>
        <mxCell id="9Qmi4rZgt9bBU9w8TVzD-43" style="edgeStyle=orthogonalEdgeStyle;rounded=0;orthogonalLoop=1;jettySize=auto;html=1;" edge="1" parent="1" source="9Qmi4rZgt9bBU9w8TVzD-10" target="9Qmi4rZgt9bBU9w8TVzD-12">
          <mxGeometry relative="1" as="geometry">
            <Array as="points">
              <mxPoint x="750" y="430" />
              <mxPoint x="750" y="900" />
            </Array>
          </mxGeometry>
        </mxCell>
        <mxCell id="9Qmi4rZgt9bBU9w8TVzD-10" value="&lt;font style=&quot;font-size: 12px;&quot; face=&quot;Helvetica&quot;&gt;Detects Predefined Color Combination&amp;nbsp;&lt;/font&gt;" style="rounded=1;whiteSpace=wrap;html=1;shadow=0;labelBackgroundColor=none;strokeWidth=1;fontFamily=Verdana;fontSize=8;align=center;fillColor=#FFFF99;" vertex="1" parent="1">
          <mxGeometry x="516" y="400" width="100" height="60" as="geometry" />
        </mxCell>
        <mxCell id="9Qmi4rZgt9bBU9w8TVzD-11" value="" style="edgeStyle=orthogonalEdgeStyle;rounded=0;orthogonalLoop=1;jettySize=auto;html=1;exitX=0.5;exitY=1;exitDx=0;exitDy=0;entryX=0.5;entryY=0;entryDx=0;entryDy=0;" edge="1" parent="1" source="9Qmi4rZgt9bBU9w8TVzD-10" target="9Qmi4rZgt9bBU9w8TVzD-8">
          <mxGeometry relative="1" as="geometry">
            <mxPoint x="545.5" y="192.5" as="sourcePoint" />
            <mxPoint x="545.5" y="232.5" as="targetPoint" />
          </mxGeometry>
        </mxCell>
        <mxCell id="9Qmi4rZgt9bBU9w8TVzD-12" value="&lt;font face=&quot;Helvetica&quot;&gt;&lt;span style=&quot;font-size: 12px;&quot;&gt;Generate Sound&lt;/span&gt;&lt;/font&gt;" style="rounded=1;whiteSpace=wrap;html=1;shadow=0;labelBackgroundColor=none;strokeWidth=1;fontFamily=Verdana;fontSize=8;align=center;fillColor=#FFFF99;" vertex="1" parent="1">
          <mxGeometry x="450" y="870" width="100" height="60" as="geometry" />
        </mxCell>
        <mxCell id="9Qmi4rZgt9bBU9w8TVzD-13" value="&lt;font face=&quot;Helvetica&quot;&gt;&lt;span style=&quot;font-size: 12px;&quot;&gt;Choose Lower Speed&lt;/span&gt;&lt;/font&gt;" style="rounded=1;whiteSpace=wrap;html=1;shadow=0;labelBackgroundColor=none;strokeWidth=1;fontFamily=Verdana;fontSize=8;align=center;fillColor=#007FFF;" vertex="1" parent="1">
          <mxGeometry x="516" y="650" width="100" height="60" as="geometry" />
        </mxCell>
        <mxCell id="9Qmi4rZgt9bBU9w8TVzD-14" value="" style="edgeStyle=orthogonalEdgeStyle;rounded=0;orthogonalLoop=1;jettySize=auto;html=1;exitX=0.5;exitY=1;exitDx=0;exitDy=0;entryX=0.5;entryY=0;entryDx=0;entryDy=0;" edge="1" parent="1" source="9Qmi4rZgt9bBU9w8TVzD-8" target="9Qmi4rZgt9bBU9w8TVzD-13">
          <mxGeometry relative="1" as="geometry">
            <mxPoint x="539.5" y="350" as="sourcePoint" />
            <mxPoint x="539.5" y="390" as="targetPoint" />
          </mxGeometry>
        </mxCell>
        <mxCell id="9Qmi4rZgt9bBU9w8TVzD-15" value="&lt;b&gt;YES&lt;/b&gt;" style="text;html=1;align=center;verticalAlign=middle;whiteSpace=wrap;rounded=0;" vertex="1" parent="1">
          <mxGeometry x="416" y="610" width="60" height="30" as="geometry" />
        </mxCell>
        <mxCell id="9Qmi4rZgt9bBU9w8TVzD-16" value="&lt;b&gt;YES&lt;/b&gt;" style="text;html=1;align=center;verticalAlign=middle;whiteSpace=wrap;rounded=0;" vertex="1" parent="1">
          <mxGeometry x="566" y="602.5" width="60" height="30" as="geometry" />
        </mxCell>
        <mxCell id="9Qmi4rZgt9bBU9w8TVzD-17" value="&lt;b&gt;NO&lt;/b&gt;" style="text;html=1;align=center;verticalAlign=middle;whiteSpace=wrap;rounded=0;" vertex="1" parent="1">
          <mxGeometry x="456" y="520" width="60" height="30" as="geometry" />
        </mxCell>
        <mxCell id="9Qmi4rZgt9bBU9w8TVzD-25" value="" style="edgeStyle=orthogonalEdgeStyle;rounded=0;orthogonalLoop=1;jettySize=auto;html=1;" edge="1" parent="1" source="9Qmi4rZgt9bBU9w8TVzD-20" target="0o9sH9TcsX90PuydhOdq-1">
          <mxGeometry relative="1" as="geometry" />
        </mxCell>
        <mxCell id="9Qmi4rZgt9bBU9w8TVzD-34" value="" style="edgeStyle=orthogonalEdgeStyle;rounded=0;orthogonalLoop=1;jettySize=auto;html=1;" edge="1" parent="1" source="9Qmi4rZgt9bBU9w8TVzD-20" target="9Qmi4rZgt9bBU9w8TVzD-28">
          <mxGeometry relative="1" as="geometry" />
        </mxCell>
        <mxCell id="9Qmi4rZgt9bBU9w8TVzD-35" style="edgeStyle=orthogonalEdgeStyle;rounded=0;orthogonalLoop=1;jettySize=auto;html=1;entryX=0;entryY=0.75;entryDx=0;entryDy=0;" edge="1" parent="1" source="9Qmi4rZgt9bBU9w8TVzD-20" target="9Qmi4rZgt9bBU9w8TVzD-30">
          <mxGeometry relative="1" as="geometry" />
        </mxCell>
        <mxCell id="9Qmi4rZgt9bBU9w8TVzD-37" style="edgeStyle=orthogonalEdgeStyle;rounded=0;orthogonalLoop=1;jettySize=auto;html=1;entryX=0;entryY=0.5;entryDx=0;entryDy=0;" edge="1" parent="1" source="9Qmi4rZgt9bBU9w8TVzD-20" target="9Qmi4rZgt9bBU9w8TVzD-26">
          <mxGeometry relative="1" as="geometry" />
        </mxCell>
        <mxCell id="9Qmi4rZgt9bBU9w8TVzD-41" style="edgeStyle=orthogonalEdgeStyle;rounded=0;orthogonalLoop=1;jettySize=auto;html=1;entryX=0;entryY=0.5;entryDx=0;entryDy=0;" edge="1" parent="1" source="9Qmi4rZgt9bBU9w8TVzD-20" target="9Qmi4rZgt9bBU9w8TVzD-12">
          <mxGeometry relative="1" as="geometry">
            <Array as="points">
              <mxPoint x="110" y="900" />
            </Array>
          </mxGeometry>
        </mxCell>
        <mxCell id="9Qmi4rZgt9bBU9w8TVzD-20" value="&lt;font face=&quot;Helvetica&quot;&gt;&lt;span style=&quot;font-size: 12px;&quot;&gt;Unlock Vehicle&lt;/span&gt;&lt;/font&gt;" style="rounded=1;whiteSpace=wrap;html=1;shadow=0;labelBackgroundColor=none;strokeWidth=1;fontFamily=Verdana;fontSize=8;align=center;fillColor=#FFFF99;" vertex="1" parent="1">
          <mxGeometry x="60" y="521.25" width="100" height="60" as="geometry" />
        </mxCell>
        <mxCell id="9Qmi4rZgt9bBU9w8TVzD-26" value="&lt;font face=&quot;Helvetica&quot;&gt;&lt;span style=&quot;font-size: 12px;&quot;&gt;Plot Real-Time Data&lt;/span&gt;&lt;/font&gt;" style="rounded=1;whiteSpace=wrap;html=1;shadow=0;labelBackgroundColor=none;strokeWidth=1;fontFamily=Verdana;fontSize=8;align=center;fillColor=#FF6666;" vertex="1" parent="1">
          <mxGeometry x="200" y="420" width="100" height="60" as="geometry" />
        </mxCell>
        <mxCell id="9Qmi4rZgt9bBU9w8TVzD-28" value="&lt;font face=&quot;Helvetica&quot;&gt;&lt;span style=&quot;font-size: 12px;&quot;&gt;Turn on Diagnostics Display&lt;/span&gt;&lt;/font&gt;" style="rounded=1;whiteSpace=wrap;html=1;shadow=0;labelBackgroundColor=none;strokeWidth=1;fontFamily=Verdana;fontSize=8;align=center;fillColor=#FFFF99;" vertex="1" parent="1">
          <mxGeometry x="60" y="400" width="100" height="60" as="geometry" />
        </mxCell>
        <mxCell id="9Qmi4rZgt9bBU9w8TVzD-30" value="&lt;font face=&quot;Helvetica&quot;&gt;&lt;span style=&quot;font-size: 12px;&quot;&gt;Display Camera Feed&lt;/span&gt;&lt;/font&gt;" style="rounded=1;whiteSpace=wrap;html=1;shadow=0;labelBackgroundColor=none;strokeWidth=1;fontFamily=Verdana;fontSize=8;align=center;fillColor=#FF6666;" vertex="1" parent="1">
          <mxGeometry x="200" y="610" width="100" height="60" as="geometry" />
        </mxCell>
        <mxCell id="9Qmi4rZgt9bBU9w8TVzD-39" value="&lt;span style=&quot;font-family: Helvetica; font-size: 12px;&quot;&gt;Prevent Collision&lt;/span&gt;" style="rounded=1;whiteSpace=wrap;html=1;shadow=0;labelBackgroundColor=none;strokeWidth=1;fontFamily=Verdana;fontSize=8;align=center;fillColor=#007FFF;" vertex="1" parent="1">
          <mxGeometry x="366" y="680" width="100" height="60" as="geometry" />
        </mxCell>
        <mxCell id="9Qmi4rZgt9bBU9w8TVzD-40" value="" style="edgeStyle=orthogonalEdgeStyle;rounded=0;orthogonalLoop=1;jettySize=auto;html=1;entryX=0.5;entryY=0;entryDx=0;entryDy=0;exitX=0.5;exitY=1;exitDx=0;exitDy=0;" edge="1" parent="1" source="IqPDjpfVyPJ-DAIQrwiP-1" target="9Qmi4rZgt9bBU9w8TVzD-39">
          <mxGeometry relative="1" as="geometry">
            <mxPoint x="426" y="612" as="sourcePoint" />
            <mxPoint x="326" y="730" as="targetPoint" />
          </mxGeometry>
        </mxCell>
        <mxCell id="9Qmi4rZgt9bBU9w8TVzD-45" value="&lt;font style=&quot;font-size: 14px;&quot;&gt;LEGEND&lt;/font&gt;" style="rounded=0;whiteSpace=wrap;html=1;" vertex="1" parent="1">
          <mxGeometry x="70" y="950" width="280" height="30" as="geometry" />
        </mxCell>
        <mxCell id="9Qmi4rZgt9bBU9w8TVzD-46" value="" style="whiteSpace=wrap;html=1;aspect=fixed;fillColor=#FFFF99;" vertex="1" parent="1">
          <mxGeometry x="110" y="1030" width="30" height="30" as="geometry" />
        </mxCell>
        <mxCell id="9Qmi4rZgt9bBU9w8TVzD-47" value="" style="whiteSpace=wrap;html=1;aspect=fixed;fillColor=#007FFF;" vertex="1" parent="1">
          <mxGeometry x="110" y="990" width="30" height="30" as="geometry" />
        </mxCell>
        <mxCell id="9Qmi4rZgt9bBU9w8TVzD-48" value="" style="whiteSpace=wrap;html=1;aspect=fixed;fillColor=#FF6666;" vertex="1" parent="1">
          <mxGeometry x="110" y="1070" width="30" height="30" as="geometry" />
        </mxCell>
        <mxCell id="9Qmi4rZgt9bBU9w8TVzD-49" value="STM32" style="text;html=1;align=center;verticalAlign=middle;whiteSpace=wrap;rounded=0;" vertex="1" parent="1">
          <mxGeometry x="150" y="1030" width="60" height="30" as="geometry" />
        </mxCell>
        <mxCell id="9Qmi4rZgt9bBU9w8TVzD-50" value="Raspberry Pi Zero" style="text;html=1;align=center;verticalAlign=middle;whiteSpace=wrap;rounded=0;" vertex="1" parent="1">
          <mxGeometry x="155" y="1070" width="110" height="30" as="geometry" />
        </mxCell>
        <mxCell id="9Qmi4rZgt9bBU9w8TVzD-51" value="Arduino&amp;nbsp;Nano 33 BLE Rev2" style="text;html=1;align=center;verticalAlign=middle;whiteSpace=wrap;rounded=0;" vertex="1" parent="1">
          <mxGeometry x="150" y="990" width="170" height="30" as="geometry" />
        </mxCell>
      </root>
    </mxGraphModel>
  </diagram>
</mxfile>
